<svg id="Capa_1" enable-background="new 0 0 512 512" height="512" viewBox="0 0 512 512" width="512" xmlns="http://www.w3.org/2000/svg"><g><path d="m466 322h-5v-232h5c8.284 0 15-6.716 15-15s-6.716-15-15-15h-139.188l-16.582-49.743c-2.042-6.125-7.774-10.257-14.23-10.257h-80c-6.456 0-12.188 4.132-14.23 10.257l-16.582 49.743h-139.188c-8.284 0-15 6.716-15 15s6.716 15 15 15h5v232h-5c-8.284 0-15 6.716-15 15s6.716 15 15 15h128.355l-48.75 130h-19.605c-8.284 0-15 6.716-15 15s6.716 15 15 15h60c8.284 0 15-6.716 15-15s-6.716-15-15-15h-8.355l11.25-30h174.21l11.25 30h-8.355c-8.284 0-15 6.716-15 15s6.716 15 15 15h60c8.284 0 15-6.716 15-15s-6.716-15-15-15h-19.605l-48.75-130h128.355c8.284 0 15-6.716 15-15s-6.716-15-15-15zm-239.188-292h58.377l10 30h-78.377zm204.188 60v194.911l-64.91-59.009c-5.72-5.203-14.458-5.201-20.18 0l-55.622 50.565-95.288-71.467c-5.334-4-12.666-4-18 0l-96 72v-187zm-350 232v-7.5l105-78.75 115 86.25zm160 100h-60.855l26.25-70h34.605zm30 0v-70h34.605l26.25 70zm80-100-36.275-27.206 41.275-37.523 71.201 64.729z"/><path d="m301 212c24.813 0 45-20.187 45-45s-20.187-45-45-45-45 20.187-45 45 20.187 45 45 45zm0-60c8.271 0 15 6.729 15 15s-6.729 15-15 15-15-6.729-15-15 6.729-15 15-15z"/></g></svg>