<?xml version="1.0" encoding="iso-8859-1"?>
<!-- Generator: Adobe Illustrator 16.0.0, SVG Export Plug-In . SVG Version: 6.00 Build 0)  -->
<!DOCTYPE svg PUBLIC "-//W3C//DTD SVG 1.1//EN" "http://www.w3.org/Graphics/SVG/1.1/DTD/svg11.dtd">
<svg version="1.1" id="Capa_1" xmlns="http://www.w3.org/2000/svg" xmlns:xlink="http://www.w3.org/1999/xlink" x="0px" y="0px"
	 width="612px" height="612px" viewBox="0 0 612 612" style="enable-background:new 0 0 612 612;" xml:space="preserve">
<g>
	<path d="M566.164,43.843C551.742,35.06,534.807,30,516.688,30h-2.769H95.312h-9.26C34.553,30,0,68.165,0,118.771v6.622v40.171
		v321.331C0,539.575,42.669,582,95.312,582h421.377C569.331,582,612,539.575,612,486.894V165.563v-40.171v-6.622
		C612,86.914,593.369,59.472,566.164,43.843z M513.92,60c11.538,0,22.65,2.617,32.383,7.161C567.455,77.95,582,100,582,125.392V151
		H30v-25.608C30,89.344,59.294,60,95.312,60H513.92z M516.688,552H95.312C59.294,552,30,522.941,30,486.894V181h552v305.894
		C582,522.941,552.706,552,516.688,552z"/>
	<path d="M89.793,113.724c0,9.481,7.675,17.166,17.156,17.166s17.166-7.685,17.166-17.166c0-9.491-7.685-17.176-17.166-17.176
		S89.793,104.233,89.793,113.724z"/>
	<path d="M164.146,130.89c9.481,0,17.166-7.685,17.166-17.166c0-9.491-7.685-17.176-17.166-17.176
		c-9.471,0-17.156,7.685-17.156,17.176C146.99,123.205,154.675,130.89,164.146,130.89z"/>
	<path d="M221.354,130.89c9.471,0,17.156-7.685,17.156-17.166c0-9.491-7.685-17.176-17.156-17.176
		c-9.481,0-17.156,7.685-17.156,17.176C204.197,123.205,211.873,130.89,221.354,130.89z"/>
</g>
<g>
</g>
<g>
</g>
<g>
</g>
<g>
</g>
<g>
</g>
<g>
</g>
<g>
</g>
<g>
</g>
<g>
</g>
<g>
</g>
<g>
</g>
<g>
</g>
<g>
</g>
<g>
</g>
<g>
</g>
</svg>
